<svg width="623" height="48" viewBox="0 0 623 48" fill="none" xmlns="http://www.w3.org/2000/svg">
<path d="M22.38 47.22C17.94 47.22 14.04 46.46 10.68 44.94C7.32 43.42 4.7 41.3 2.82 38.58C0.94 35.82 0 32.64 0 29.04C0 25.36 0.94 22.16 2.82 19.44C4.7 16.68 7.32 14.56 10.68 13.08C14.04 11.56 17.96 10.8 22.44 10.8C26.88 10.8 30.78 11.56 34.14 13.08C37.5 14.56 40.1 16.68 41.94 19.44C43.82 22.16 44.76 25.36 44.76 29.04C44.76 32.64 43.82 35.82 41.94 38.58C40.1 41.3 37.5 43.42 34.14 44.94C30.78 46.46 26.86 47.22 22.38 47.22ZM22.44 37.14C24.24 37.14 25.76 36.82 27 36.18C28.28 35.54 29.24 34.62 29.88 33.42C30.56 32.18 30.9 30.72 30.9 29.04C30.9 27.32 30.56 25.86 29.88 24.66C29.24 23.42 28.28 22.48 27 21.84C25.76 21.2 24.24 20.88 22.44 20.88C20.64 20.88 19.1 21.2 17.82 21.84C16.54 22.48 15.56 23.42 14.88 24.66C14.24 25.86 13.92 27.3 13.92 28.98C13.92 30.7 14.24 32.18 14.88 33.42C15.56 34.62 16.54 35.54 17.82 36.18C19.1 36.82 20.64 37.14 22.44 37.14Z" fill="#FFCC00"/>
<path d="M47.6339 11.82H61.3739L63.7139 26.04V46.2H49.9739V23.94L47.6339 11.82ZM75.9539 10.8C79.3139 10.8 82.1539 11.46 84.4739 12.78C86.7939 14.1 88.5739 15.98 89.8139 18.42C91.0939 20.82 91.7339 23.64 91.7339 26.88V46.2H77.9339V28.86C77.9339 26.62 77.3339 24.9 76.1339 23.7C74.9739 22.5 73.3139 21.9 71.1539 21.9C69.6339 21.9 68.3139 22.22 67.1939 22.86C66.0739 23.5 65.2139 24.4 64.6139 25.56C64.0139 26.72 63.7139 28.12 63.7139 29.76L59.5739 27.6C60.0939 23.88 61.1339 20.78 62.6939 18.3C64.2939 15.82 66.2339 13.96 68.5139 12.72C70.7939 11.44 73.2739 10.8 75.9539 10.8Z" fill="#FFCC00"/>
<path d="M128.495 46.2L126.815 33.36L129.035 29.16L126.815 23.58L129.815 0H144.095L140.435 27.9L142.775 46.2H128.495ZM131.255 29.04C130.775 32.68 129.715 35.88 128.075 38.64C126.475 41.36 124.395 43.48 121.835 45C119.315 46.48 116.415 47.22 113.135 47.22C109.815 47.22 106.875 46.46 104.315 44.94C101.755 43.42 99.7552 41.3 98.3152 38.58C96.9152 35.82 96.2152 32.64 96.2152 29.04C96.2152 25.36 96.9152 22.16 98.3152 19.44C99.7552 16.68 101.755 14.56 104.315 13.08C106.875 11.56 109.815 10.8 113.135 10.8C116.415 10.8 119.315 11.54 121.835 13.02C124.395 14.5 126.495 16.62 128.135 19.38C129.775 22.1 130.815 25.32 131.255 29.04ZM110.075 29.04C110.075 30.56 110.375 31.9 110.975 33.06C111.615 34.22 112.495 35.14 113.615 35.82C114.735 36.5 116.015 36.84 117.455 36.84C118.935 36.84 120.355 36.5 121.715 35.82C123.075 35.14 124.275 34.22 125.315 33.06C126.355 31.9 127.115 30.56 127.595 29.04C127.115 27.52 126.355 26.18 125.315 25.02C124.275 23.82 123.075 22.88 121.715 22.2C120.355 21.52 118.935 21.18 117.455 21.18C116.015 21.18 114.735 21.52 113.615 22.2C112.495 22.88 111.615 23.82 110.975 25.02C110.375 26.18 110.075 27.52 110.075 29.04Z" fill="#FFCC00"/>
<path d="M178.469 46.2L176.849 33.96L178.529 29.04L176.849 24.18L178.469 11.82H192.749L190.469 28.98L192.749 46.2H178.469ZM181.529 29.04C181.049 32.68 179.989 35.88 178.349 38.64C176.749 41.36 174.669 43.48 172.109 45C169.589 46.48 166.689 47.22 163.409 47.22C160.089 47.22 157.149 46.46 154.589 44.94C152.029 43.42 150.029 41.3 148.589 38.58C147.189 35.82 146.489 32.64 146.489 29.04C146.489 25.36 147.189 22.16 148.589 19.44C150.029 16.68 152.029 14.56 154.589 13.08C157.149 11.56 160.089 10.8 163.409 10.8C166.689 10.8 169.589 11.54 172.109 13.02C174.669 14.5 176.769 16.62 178.409 19.38C180.049 22.1 181.089 25.32 181.529 29.04ZM160.349 29.04C160.349 30.56 160.649 31.9 161.249 33.06C161.889 34.22 162.769 35.14 163.889 35.82C165.009 36.5 166.289 36.84 167.729 36.84C169.209 36.84 170.629 36.5 171.989 35.82C173.349 35.14 174.549 34.22 175.589 33.06C176.629 31.9 177.389 30.56 177.869 29.04C177.389 27.52 176.629 26.18 175.589 25.02C174.549 23.82 173.349 22.88 171.989 22.2C170.629 21.52 169.209 21.18 167.729 21.18C166.289 21.18 165.009 21.52 163.889 22.2C162.769 22.88 161.889 23.82 161.249 25.02C160.649 26.18 160.349 27.52 160.349 29.04Z" fill="#FFCC00"/>
<path d="M239.245 34.74C239.245 37.5 238.385 39.82 236.665 41.7C234.985 43.54 232.585 44.92 229.465 45.84C226.385 46.76 222.725 47.22 218.485 47.22C214.125 47.22 210.285 46.7 206.965 45.66C203.685 44.62 201.105 43.14 199.225 41.22C197.385 39.3 196.405 37.08 196.285 34.56H210.205C210.485 35.4 211.005 36.12 211.765 36.72C212.525 37.32 213.505 37.78 214.705 38.1C215.945 38.42 217.445 38.58 219.205 38.58C221.365 38.58 223.005 38.36 224.125 37.92C225.285 37.44 225.865 36.76 225.865 35.88C225.865 35.12 225.405 34.58 224.485 34.26C223.605 33.9 222.105 33.64 219.985 33.48L214.165 33.06C209.965 32.78 206.625 32.2 204.145 31.32C201.665 30.44 199.885 29.28 198.805 27.84C197.725 26.36 197.185 24.62 197.185 22.62C197.185 19.98 198.025 17.78 199.705 16.02C201.385 14.26 203.725 12.96 206.725 12.12C209.725 11.24 213.245 10.8 217.285 10.8C221.245 10.8 224.765 11.3 227.845 12.3C230.925 13.3 233.385 14.72 235.225 16.56C237.105 18.36 238.185 20.46 238.465 22.86H224.545C224.345 22.1 223.925 21.44 223.285 20.88C222.645 20.28 221.785 19.82 220.705 19.5C219.625 19.14 218.265 18.96 216.625 18.96C214.625 18.96 213.125 19.2 212.125 19.68C211.125 20.16 210.625 20.82 210.625 21.66C210.625 22.34 210.925 22.86 211.525 23.22C212.165 23.54 213.345 23.76 215.065 23.88L222.805 24.42C226.965 24.66 230.225 25.22 232.585 26.1C234.985 26.94 236.685 28.08 237.685 29.52C238.725 30.96 239.245 32.7 239.245 34.74Z" fill="#FFCC00"/>
<path d="M289.211 46.2L287.591 33.96L289.271 29.04L287.591 24.18L289.211 11.82H303.491L301.211 28.98L303.491 46.2H289.211ZM292.271 29.04C291.791 32.68 290.731 35.88 289.091 38.64C287.491 41.36 285.411 43.48 282.851 45C280.331 46.48 277.431 47.22 274.151 47.22C270.831 47.22 267.891 46.46 265.331 44.94C262.771 43.42 260.771 41.3 259.331 38.58C257.931 35.82 257.231 32.64 257.231 29.04C257.231 25.36 257.931 22.16 259.331 19.44C260.771 16.68 262.771 14.56 265.331 13.08C267.891 11.56 270.831 10.8 274.151 10.8C277.431 10.8 280.331 11.54 282.851 13.02C285.411 14.5 287.511 16.62 289.151 19.38C290.791 22.1 291.831 25.32 292.271 29.04ZM271.091 29.04C271.091 30.56 271.391 31.9 271.991 33.06C272.631 34.22 273.511 35.14 274.631 35.82C275.751 36.5 277.031 36.84 278.471 36.84C279.951 36.84 281.371 36.5 282.731 35.82C284.091 35.14 285.291 34.22 286.331 33.06C287.371 31.9 288.131 30.56 288.611 29.04C288.131 27.52 287.371 26.18 286.331 25.02C285.291 23.82 284.091 22.88 282.731 22.2C281.371 21.52 279.951 21.18 278.471 21.18C277.031 21.18 275.751 21.52 274.631 22.2C273.511 22.88 272.631 23.82 271.991 25.02C271.391 26.18 271.091 27.52 271.091 29.04Z" fill="#FFCC00"/>
<path d="M307.263 11.82H321.003L323.343 26.04V46.2H309.603V23.94L307.263 11.82ZM334.923 10.8C338.123 10.8 340.843 11.46 343.083 12.78C345.323 14.1 347.023 15.98 348.183 18.42C349.383 20.82 349.983 23.64 349.983 26.88V46.2H336.243V28.86C336.243 26.62 335.703 24.9 334.623 23.7C333.583 22.5 332.083 21.9 330.123 21.9C328.723 21.9 327.503 22.22 326.463 22.86C325.463 23.5 324.683 24.4 324.123 25.56C323.603 26.72 323.343 28.12 323.343 29.76L319.203 27.6C319.723 23.88 320.723 20.78 322.203 18.3C323.723 15.82 325.583 13.96 327.783 12.72C329.983 11.44 332.363 10.8 334.923 10.8ZM361.503 10.8C364.703 10.8 367.423 11.46 369.663 12.78C371.943 14.1 373.663 15.98 374.823 18.42C376.023 20.82 376.623 23.64 376.623 26.88V46.2H362.883V28.86C362.883 26.62 362.343 24.9 361.263 23.7C360.223 22.5 358.723 21.9 356.763 21.9C355.363 21.9 354.143 22.22 353.103 22.86C352.103 23.5 351.323 24.4 350.763 25.56C350.243 26.72 349.983 28.12 349.983 29.76L345.843 27.6C346.363 23.88 347.363 20.78 348.843 18.3C350.363 15.82 352.203 13.96 354.363 12.72C356.563 11.44 358.943 10.8 361.503 10.8Z" fill="#FFCC00"/>
<path d="M413.078 46.2L411.458 33.96L413.138 29.04L411.458 24.18L413.078 11.82H427.358L425.078 28.98L427.358 46.2H413.078ZM416.138 29.04C415.658 32.68 414.598 35.88 412.958 38.64C411.358 41.36 409.278 43.48 406.718 45C404.198 46.48 401.298 47.22 398.018 47.22C394.698 47.22 391.758 46.46 389.198 44.94C386.638 43.42 384.638 41.3 383.198 38.58C381.798 35.82 381.098 32.64 381.098 29.04C381.098 25.36 381.798 22.16 383.198 19.44C384.638 16.68 386.638 14.56 389.198 13.08C391.758 11.56 394.698 10.8 398.018 10.8C401.298 10.8 404.198 11.54 406.718 13.02C409.278 14.5 411.378 16.62 413.018 19.38C414.658 22.1 415.698 25.32 416.138 29.04ZM394.958 29.04C394.958 30.56 395.258 31.9 395.858 33.06C396.498 34.22 397.378 35.14 398.498 35.82C399.618 36.5 400.898 36.84 402.338 36.84C403.818 36.84 405.238 36.5 406.598 35.82C407.958 35.14 409.158 34.22 410.198 33.06C411.238 31.9 411.998 30.56 412.478 29.04C411.998 27.52 411.238 26.18 410.198 25.02C409.158 23.82 407.958 22.88 406.598 22.2C405.238 21.52 403.818 21.18 402.338 21.18C400.898 21.18 399.618 21.52 398.498 22.2C397.378 22.88 396.498 23.82 395.858 25.02C395.258 26.18 394.958 27.52 394.958 29.04Z" fill="#FFCC00"/>
<path d="M431.13 11.82H445.17L447.21 24V46.2H433.47V23.58L431.13 11.82ZM462.87 11.16V22.86C461.59 22.62 460.41 22.46 459.33 22.38C458.29 22.26 457.33 22.2 456.45 22.2C454.81 22.2 453.29 22.52 451.89 23.16C450.49 23.76 449.35 24.82 448.47 26.34C447.63 27.82 447.21 29.88 447.21 32.52L444.69 29.4C445.05 26.92 445.53 24.58 446.13 22.38C446.77 20.14 447.63 18.16 448.71 16.44C449.79 14.68 451.13 13.3 452.73 12.3C454.37 11.3 456.37 10.8 458.73 10.8C459.37 10.8 460.03 10.84 460.71 10.92C461.39 10.96 462.11 11.04 462.87 11.16Z" fill="#FFCC00"/>
<path d="M486.728 47.22C482.488 47.22 478.708 46.46 475.388 44.94C472.068 43.42 469.448 41.28 467.528 38.52C465.608 35.76 464.648 32.54 464.648 28.86C464.648 25.26 465.568 22.1 467.408 19.38C469.288 16.66 471.828 14.56 475.028 13.08C478.268 11.56 481.888 10.8 485.888 10.8C490.088 10.8 493.668 11.68 496.628 13.44C499.588 15.16 501.848 17.62 503.408 20.82C505.008 24.02 505.808 27.78 505.808 32.1H475.868V25.32H497.888L493.868 27.6C493.668 25.88 493.228 24.46 492.548 23.34C491.908 22.18 491.028 21.3 489.908 20.7C488.828 20.1 487.528 19.8 486.008 19.8C484.328 19.8 482.888 20.16 481.688 20.88C480.528 21.6 479.628 22.6 478.988 23.88C478.388 25.16 478.088 26.62 478.088 28.26C478.088 30.3 478.528 32.02 479.408 33.42C480.328 34.82 481.708 35.9 483.548 36.66C485.388 37.38 487.668 37.74 490.388 37.74C492.988 37.74 495.528 37.4 498.008 36.72C500.528 36.04 502.828 35.04 504.908 33.72V41.76C502.468 43.52 499.648 44.88 496.448 45.84C493.248 46.76 490.008 47.22 486.728 47.22Z" fill="#FFCC00"/>
<path d="M510.68 0H524.42V46.2H510.68V0Z" fill="#FFCC00"/>
<path d="M561.379 46.2L559.759 33.96L561.439 29.04L559.759 24.18L561.379 11.82H575.659L573.379 28.98L575.659 46.2H561.379ZM564.439 29.04C563.959 32.68 562.899 35.88 561.259 38.64C559.659 41.36 557.579 43.48 555.019 45C552.499 46.48 549.599 47.22 546.319 47.22C542.999 47.22 540.059 46.46 537.499 44.94C534.939 43.42 532.939 41.3 531.499 38.58C530.099 35.82 529.399 32.64 529.399 29.04C529.399 25.36 530.099 22.16 531.499 19.44C532.939 16.68 534.939 14.56 537.499 13.08C540.059 11.56 542.999 10.8 546.319 10.8C549.599 10.8 552.499 11.54 555.019 13.02C557.579 14.5 559.679 16.62 561.319 19.38C562.959 22.1 563.999 25.32 564.439 29.04ZM543.259 29.04C543.259 30.56 543.559 31.9 544.159 33.06C544.799 34.22 545.679 35.14 546.799 35.82C547.919 36.5 549.199 36.84 550.639 36.84C552.119 36.84 553.539 36.5 554.899 35.82C556.259 35.14 557.459 34.22 558.499 33.06C559.539 31.9 560.299 30.56 560.779 29.04C560.299 27.52 559.539 26.18 558.499 25.02C557.459 23.82 556.259 22.88 554.899 22.2C553.539 21.52 552.119 21.18 550.639 21.18C549.199 21.18 547.919 21.52 546.799 22.2C545.679 22.88 544.799 23.82 544.159 25.02C543.559 26.18 543.259 27.52 543.259 29.04Z" fill="#FFCC00"/>
<path d="M622.155 34.74C622.155 37.5 621.295 39.82 619.575 41.7C617.895 43.54 615.495 44.92 612.375 45.84C609.295 46.76 605.635 47.22 601.395 47.22C597.035 47.22 593.195 46.7 589.875 45.66C586.595 44.62 584.015 43.14 582.135 41.22C580.295 39.3 579.315 37.08 579.195 34.56H593.115C593.395 35.4 593.915 36.12 594.675 36.72C595.435 37.32 596.415 37.78 597.615 38.1C598.855 38.42 600.355 38.58 602.115 38.58C604.275 38.58 605.915 38.36 607.035 37.92C608.195 37.44 608.775 36.76 608.775 35.88C608.775 35.12 608.315 34.58 607.395 34.26C606.515 33.9 605.015 33.64 602.895 33.48L597.075 33.06C592.875 32.78 589.535 32.2 587.055 31.32C584.575 30.44 582.795 29.28 581.715 27.84C580.635 26.36 580.095 24.62 580.095 22.62C580.095 19.98 580.935 17.78 582.615 16.02C584.295 14.26 586.635 12.96 589.635 12.12C592.635 11.24 596.155 10.8 600.195 10.8C604.155 10.8 607.675 11.3 610.755 12.3C613.835 13.3 616.295 14.72 618.135 16.56C620.015 18.36 621.095 20.46 621.375 22.86H607.455C607.255 22.1 606.835 21.44 606.195 20.88C605.555 20.28 604.695 19.82 603.615 19.5C602.535 19.14 601.175 18.96 599.535 18.96C597.535 18.96 596.035 19.2 595.035 19.68C594.035 20.16 593.535 20.82 593.535 21.66C593.535 22.34 593.835 22.86 594.435 23.22C595.075 23.54 596.255 23.76 597.975 23.88L605.715 24.42C609.875 24.66 613.135 25.22 615.495 26.1C617.895 26.94 619.595 28.08 620.595 29.52C621.635 30.96 622.155 32.7 622.155 34.74Z" fill="#FFCC00"/>
</svg>
