<svg width="1000" height="1000" viewBox="0 0 1000 1000" fill="none" xmlns="http://www.w3.org/2000/svg">
<circle cx="500" cy="466" r="400" fill="#FFCC00"/>
<rect x="666" y="654" width="15" height="14" fill="white"/>
<rect x="681" y="668" width="15" height="15" fill="white" fill-opacity="0.75"/>
<rect x="696" y="683" width="15" height="15" fill="white" fill-opacity="0.4"/>
<rect x="711" y="698" width="14" height="15" fill="white" fill-opacity="0.3"/>
<rect x="711" y="683" width="14" height="15" fill="white" fill-opacity="0.3"/>
<rect x="725" y="683" width="15" height="15" fill="white" fill-opacity="0.25"/>
<rect x="725" y="668" width="15" height="15" fill="white" fill-opacity="0.25"/>
<rect x="622" y="727" width="15" height="15" fill="white" fill-opacity="0.25"/>
<rect x="622" y="713" width="15" height="14" fill="white" fill-opacity="0.3"/>
<rect x="607" y="698" width="15" height="15" fill="white" fill-opacity="0.3"/>
<rect x="607" y="713" width="15" height="14" fill="white" fill-opacity="0.25"/>
<rect x="593" y="698" width="14" height="15" fill="white" fill-opacity="0.25"/>
<rect x="593" y="683" width="14" height="15" fill="white" fill-opacity="0.3"/>
<rect x="593" y="668" width="14" height="15" fill="white" fill-opacity="0.3"/>
<rect x="593" y="654" width="14" height="14" fill="white" fill-opacity="0.3"/>
<rect x="593" y="639" width="14" height="15" fill="white" fill-opacity="0.3"/>
<rect x="607" y="639" width="15" height="15" fill="white" fill-opacity="0.4"/>
<rect x="607" y="624" width="15" height="15" fill="white" fill-opacity="0.3"/>
<rect x="607" y="609" width="15" height="15" fill="white" fill-opacity="0.25"/>
<rect x="622" y="609" width="15" height="15" fill="white" fill-opacity="0.3"/>
<rect x="593" y="624" width="14" height="15" fill="white" fill-opacity="0.25"/>
<rect x="593" y="609" width="14" height="15" fill="white" fill-opacity="0.25"/>
<rect x="681" y="609" width="15" height="15" fill="white" fill-opacity="0.3"/>
<rect x="681" y="580" width="15" height="15" fill="white" fill-opacity="0.25"/>
<rect x="666" y="580" width="15" height="15" fill="white" fill-opacity="0.25"/>
<rect x="652" y="580" width="14" height="15" fill="white" fill-opacity="0.25"/>
<rect x="637" y="580" width="15" height="15" fill="white" fill-opacity="0.25"/>
<rect x="622" y="580" width="15" height="15" fill="white" fill-opacity="0.25"/>
<rect x="578" y="639" width="15" height="15" fill="white" fill-opacity="0.25"/>
<rect x="578" y="654" width="15" height="14" fill="white" fill-opacity="0.25"/>
<rect x="578" y="668" width="15" height="15" fill="white" fill-opacity="0.25"/>
<rect x="607" y="595" width="15" height="14" fill="white" fill-opacity="0.25"/>
<rect x="622" y="595" width="15" height="14" fill="white" fill-opacity="0.25"/>
<rect x="637" y="595" width="15" height="14" fill="white" fill-opacity="0.3"/>
<rect x="652" y="595" width="14" height="14" fill="white" fill-opacity="0.3"/>
<rect x="666" y="595" width="15" height="14" fill="white" fill-opacity="0.3"/>
<rect x="681" y="595" width="15" height="14" fill="white" fill-opacity="0.25"/>
<rect x="696" y="595" width="15" height="14" fill="white" fill-opacity="0.25"/>
<rect x="740" y="639" width="15" height="15" fill="white" fill-opacity="0.25"/>
<rect x="740" y="654" width="15" height="14" fill="white" fill-opacity="0.25"/>
<rect x="740" y="668" width="15" height="15" fill="white" fill-opacity="0.25"/>
<rect x="725" y="654" width="15" height="14" fill="white" fill-opacity="0.25"/>
<rect x="725" y="639" width="15" height="15" fill="white" fill-opacity="0.25"/>
<rect x="725" y="624" width="15" height="15" fill="white" fill-opacity="0.25"/>
<rect x="711" y="609" width="14" height="15" fill="white" fill-opacity="0.25"/>
<rect x="696" y="609" width="15" height="15" fill="white" fill-opacity="0.25"/>
<rect x="696" y="624" width="15" height="15" fill="white" fill-opacity="0.3"/>
<rect x="711" y="624" width="14" height="15" fill="white" fill-opacity="0.25"/>
<rect x="711" y="639" width="14" height="15" fill="white" fill-opacity="0.3"/>
<rect x="711" y="654" width="14" height="14" fill="white" fill-opacity="0.25"/>
<rect x="637" y="727" width="15" height="15" fill="white" fill-opacity="0.3"/>
<rect x="652" y="639" width="14" height="15" fill="white" fill-opacity="0.75"/>
<rect x="637" y="654" width="15" height="14" fill="white" fill-opacity="0.75"/>
<rect x="637" y="668" width="15" height="15" fill="white"/>
<rect x="637" y="683" width="15" height="15" fill="white" fill-opacity="0.75"/>
<rect x="637" y="698" width="15" height="15" fill="white" fill-opacity="0.5"/>
<rect x="622" y="698" width="15" height="15" fill="white" fill-opacity="0.4"/>
<rect x="622" y="683" width="15" height="15" fill="white" fill-opacity="0.5"/>
<rect x="622" y="668" width="15" height="15" fill="white" fill-opacity="0.5"/>
<rect x="622" y="654" width="15" height="14" fill="white" fill-opacity="0.5"/>
<rect x="622" y="639" width="15" height="15" fill="white" fill-opacity="0.4"/>
<rect x="637" y="639" width="15" height="15" fill="white" fill-opacity="0.75"/>
<rect x="666" y="639" width="15" height="15" fill="white" fill-opacity="0.75"/>
<rect x="681" y="654" width="15" height="14" fill="white" fill-opacity="0.75"/>
<rect x="681" y="639" width="15" height="15" fill="white" fill-opacity="0.5"/>
<rect x="696" y="668" width="15" height="15" fill="white" fill-opacity="0.5"/>
<rect x="711" y="668" width="14" height="15" fill="white" fill-opacity="0.3"/>
<rect x="711" y="654" width="14" height="14" fill="white" fill-opacity="0.3"/>
<rect x="696" y="654" width="15" height="14" fill="white" fill-opacity="0.5"/>
<rect x="696" y="639" width="15" height="15" fill="white" fill-opacity="0.4"/>
<rect x="607" y="683" width="15" height="15" fill="white" fill-opacity="0.4"/>
<rect x="607" y="668" width="15" height="15" fill="white" fill-opacity="0.4"/>
<rect x="607" y="654" width="15" height="14" fill="white" fill-opacity="0.4"/>
<rect x="637" y="609" width="15" height="15" fill="white" fill-opacity="0.4"/>
<rect x="666" y="609" width="15" height="15" fill="white" fill-opacity="0.4"/>
<rect x="681" y="624" width="15" height="15" fill="white" fill-opacity="0.4"/>
<rect x="652" y="609" width="14" height="15" fill="white" fill-opacity="0.4"/>
<rect x="622" y="624" width="15" height="15" fill="white" fill-opacity="0.4"/>
<rect x="637" y="624" width="15" height="15" fill="white" fill-opacity="0.5"/>
<rect x="652" y="624" width="14" height="15" fill="white" fill-opacity="0.5"/>
<rect x="666" y="624" width="15" height="15" fill="white" fill-opacity="0.5"/>
<rect x="637" y="713" width="15" height="14" fill="white" fill-opacity="0.4"/>
<path d="M652 654H666.75V668.737H652V654Z" fill="black"/>
<path d="M652 668.737H666.75V683.474H652V668.737Z" fill="black"/>
<path d="M652 683.474H666.75V698.211H652V683.474Z" fill="black"/>
<path d="M652 698.211H666.75V712.947H652V698.211Z" fill="black"/>
<path d="M652 712.947H666.75V727.684H652V712.947Z" fill="black"/>
<path d="M652 727.684H666.75V742.421H652V727.684Z" fill="black"/>
<path d="M652 742.421H666.75V757.158H652V742.421Z" fill="black"/>
<path d="M652 757.158H666.75V771.895H652V757.158Z" fill="black"/>
<path d="M652 771.895H666.75V786.632H652V771.895Z" fill="black"/>
<path d="M652 786.632H666.75V801.368H652V786.632Z" fill="black"/>
<path d="M652 801.368H666.75V816.105H652V801.368Z" fill="black"/>
<path d="M652 816.105H666.75V830.842H652V816.105Z" fill="black"/>
<path d="M652 830.842H666.75V845.579H652V830.842Z" fill="black"/>
<path d="M652 845.579H666.75V860.316H652V845.579Z" fill="black"/>
<path d="M652 860.316H666.75V875.053H652V860.316Z" fill="black"/>
<path d="M652 875.053H666.75V889.789H652V875.053Z" fill="black"/>
<path d="M652 889.789H666.75V904.526H652V889.789Z" fill="black"/>
<path d="M666.75 889.789H681.5V904.526H666.75V889.789Z" fill="black"/>
<path d="M681.5 875.053H696.25V889.789H681.5V875.053Z" fill="black"/>
<path d="M696.25 860.316H711V875.053H696.25V860.316Z" fill="black"/>
<path d="M711 845.579H725.75V860.316H711V845.579Z" fill="black"/>
<path d="M725.75 860.316H740.5V875.053H725.75V860.316Z" fill="black"/>
<path d="M725.75 875.053H740.5V889.789H725.75V875.053Z" fill="black"/>
<path d="M740.5 889.789H755.25V904.526H740.5V889.789Z" fill="black"/>
<path d="M740.5 904.526H755.25V919.263H740.5V904.526Z" fill="black"/>
<path d="M755.25 919.263H770V934H755.25V919.263Z" fill="black"/>
<path d="M770 919.263H784.75V934H770V919.263Z" fill="black"/>
<path d="M784.75 904.526H799.5V919.263H784.75V904.526Z" fill="black"/>
<path d="M784.75 889.789H799.5V904.526H784.75V889.789Z" fill="black"/>
<path d="M770 875.053H784.75V889.789H770V875.053Z" fill="black"/>
<path d="M770 860.316H784.75V875.053H770V860.316Z" fill="black"/>
<path d="M755.25 845.579H770V860.316H755.25V845.579Z" fill="black"/>
<path d="M755.25 830.842H770V845.579H755.25V830.842Z" fill="black"/>
<path d="M770 830.842H784.75V845.579H770V830.842Z" fill="black"/>
<path d="M784.75 830.842H799.5V845.579H784.75V830.842Z" fill="black"/>
<path d="M799.5 830.842H814.25V845.579H799.5V830.842Z" fill="black"/>
<path d="M814.25 830.842H829V845.579H814.25V830.842Z" fill="black"/>
<path d="M814.25 816.105H829V830.842H814.25V816.105Z" fill="black"/>
<path d="M666.75 668.737H681.5V683.474H666.75V668.737Z" fill="black"/>
<path d="M681.5 683.474H696.25V698.211H681.5V683.474Z" fill="black"/>
<path d="M696.25 698.211H711V712.947H696.25V698.211Z" fill="black"/>
<path d="M711 712.947H725.75V727.684H711V712.947Z" fill="black"/>
<path d="M725.75 727.684H740.5V742.421H725.75V727.684Z" fill="black"/>
<path d="M740.5 742.421H755.25V757.158H740.5V742.421Z" fill="black"/>
<path d="M755.25 757.158H770V771.895H755.25V757.158Z" fill="black"/>
<path d="M770 771.895H784.75V786.632H770V771.895Z" fill="black"/>
<path d="M784.75 786.632H799.5V801.368H784.75V786.632Z" fill="black"/>
<path d="M799.5 801.368H814.25V816.105H799.5V801.368Z" fill="black"/>
<path d="M666.75 683.474V698.211V712.947V727.684V742.421V757.158V771.895V786.632V801.368V816.105V830.842V845.579V860.316V875.053V889.789H681.5V875.053H696.25V860.316H711V845.579H725.75V860.316H740.5V875.053V889.789H755.25V904.526V919.263H770H784.75V904.526V889.789H770V875.053V860.316H755.25V845.579V830.842H770H784.75H799.5H814.25V816.105H799.5V801.368H784.75V786.632H770V771.895H755.25V757.158H740.5V742.421H725.75V727.684H711V712.947H696.25V698.211H681.5V683.474H666.75Z" fill="white"/>
</svg>
